<svg xmlns="http://www.w3.org/2000/svg" xmlns:xlink="http://www.w3.org/1999/xlink" width="80" zoomAndPan="magnify" viewBox="0 0 60 60" height="80" preserveAspectRatio="xMidYMid meet" version="1.0"><defs><clipPath id="793018edea"><path d="M 0 0 L 59.675781 0 L 59.675781 59.675781 L 0 59.675781 Z M 0 0 " clip-rule="nonzero"/></clipPath><clipPath id="eb772c2f5d"><path d="M 29.835938 0 C 13.359375 0 0 13.359375 0 29.835938 C 0 46.316406 13.359375 59.675781 29.835938 59.675781 C 46.316406 59.675781 59.675781 46.316406 59.675781 29.835938 C 59.675781 13.359375 46.316406 0 29.835938 0 Z M 29.835938 0 " clip-rule="nonzero"/></clipPath><clipPath id="149728f00b"><path d="M 0 0 L 59.675781 0 L 59.675781 59.675781 L 0 59.675781 Z M 0 0 " clip-rule="nonzero"/></clipPath><clipPath id="70a561890e"><path d="M 29.835938 0 C 13.359375 0 0 13.359375 0 29.835938 C 0 46.316406 13.359375 59.675781 29.835938 59.675781 C 46.316406 59.675781 59.675781 46.316406 59.675781 29.835938 C 59.675781 13.359375 46.316406 0 29.835938 0 Z M 29.835938 0 " clip-rule="nonzero"/></clipPath><clipPath id="427c3b8951"><rect x="0" width="60" y="0" height="60"/></clipPath><clipPath id="72e7091a0f"><path d="M 10.484375 12.847656 L 49.484375 12.847656 L 49.484375 46.597656 L 10.484375 46.597656 Z M 10.484375 12.847656 " clip-rule="nonzero"/></clipPath></defs><g clip-path="url(#793018edea)"><g clip-path="url(#eb772c2f5d)"><g transform="matrix(1, 0, 0, 1, 0, -0.000000000000001479)"><g clip-path="url(#427c3b8951)"><g clip-path="url(#149728f00b)"><g clip-path="url(#70a561890e)"><path fill="#a44a3f" d="M 0 0 L 59.675781 0 L 59.675781 59.675781 L 0 59.675781 Z M 0 0 " fill-opacity="1" fill-rule="nonzero"/></g></g></g></g></g></g><g clip-path="url(#72e7091a0f)"><path fill="#f4f1de" d="M 48.535156 26.507812 C 48.113281 25.460938 47.496094 24.496094 46.6875 23.699219 C 46.511719 23.527344 46.308594 23.359375 46.089844 23.207031 C 46.089844 22.011719 45.808594 20.835938 45.269531 19.792969 C 44.726562 18.738281 43.929688 17.816406 42.898438 17.148438 C 42.265625 16.738281 41.550781 16.398438 40.800781 16.152344 C 40.050781 15.914062 39.265625 15.773438 38.480469 15.773438 C 38.207031 15.773438 37.929688 15.792969 37.660156 15.828125 C 37.652344 15.816406 37.644531 15.804688 37.636719 15.796875 C 37.234375 15.238281 36.703125 14.734375 36.164062 14.3125 C 35.894531 14.105469 35.621094 13.921875 35.359375 13.765625 C 35.09375 13.609375 34.84375 13.480469 34.617188 13.390625 C 33.6875 13.011719 32.71875 12.851562 31.753906 12.851562 C 30.550781 12.851562 29.34375 13.101562 28.203125 13.496094 C 27.976562 13.574219 27.726562 13.675781 27.476562 13.804688 C 26.378906 13.292969 25.191406 13.042969 24.003906 13.042969 C 22.476562 13.042969 20.953125 13.457031 19.609375 14.253906 C 19.0625 14.582031 18.257812 15.125 17.578125 15.78125 C 17.238281 16.113281 16.929688 16.46875 16.707031 16.855469 C 16.679688 16.894531 16.65625 16.9375 16.636719 16.984375 C 15.96875 17.066406 15.339844 17.28125 14.761719 17.597656 C 13.675781 18.195312 12.769531 19.148438 12.132812 20.265625 C 11.496094 21.386719 11.125 22.664062 11.125 23.925781 C 11.125 24.476562 11.195312 25.023438 11.347656 25.546875 C 11.300781 25.59375 11.257812 25.640625 11.21875 25.691406 C 10.964844 26.003906 10.78125 26.367188 10.660156 26.757812 C 10.542969 27.144531 10.484375 27.558594 10.484375 27.976562 C 10.484375 28.730469 10.664062 29.503906 10.988281 30.199219 C 11.148438 30.542969 11.347656 30.867188 11.578125 31.160156 C 11.8125 31.445312 12.074219 31.703125 12.371094 31.90625 C 12.789062 32.199219 13.238281 32.414062 13.710938 32.5625 C 14.183594 32.710938 14.671875 32.789062 15.167969 32.8125 C 15.265625 32.816406 15.351562 32.738281 15.355469 32.640625 C 15.359375 32.542969 15.28125 32.457031 15.183594 32.453125 C 14.71875 32.4375 14.257812 32.359375 13.820312 32.222656 C 13.378906 32.082031 12.960938 31.882812 12.574219 31.613281 C 12.3125 31.429688 12.070312 31.199219 11.859375 30.933594 C 11.542969 30.535156 11.289062 30.058594 11.113281 29.550781 C 10.9375 29.039062 10.847656 28.503906 10.847656 27.980469 C 10.847656 27.636719 10.890625 27.300781 10.972656 26.984375 C 11.039062 26.746094 11.125 26.523438 11.242188 26.3125 C 11.3125 26.183594 11.394531 26.0625 11.484375 25.949219 C 11.636719 26.355469 11.84375 26.746094 12.105469 27.109375 C 12.296875 27.378906 12.574219 27.601562 12.886719 27.761719 C 13.203125 27.917969 13.554688 28.011719 13.902344 28.011719 C 14.070312 28.011719 14.242188 27.988281 14.40625 27.9375 C 14.570312 27.890625 14.726562 27.816406 14.867188 27.714844 C 15.078125 27.5625 15.230469 27.371094 15.328125 27.160156 C 15.429688 26.945312 15.472656 26.714844 15.472656 26.484375 C 15.472656 26.25 15.429688 26.019531 15.34375 25.804688 C 15.257812 25.585938 15.136719 25.386719 14.972656 25.214844 C 14.777344 25.007812 14.539062 24.859375 14.277344 24.761719 C 14.015625 24.664062 13.738281 24.617188 13.464844 24.617188 C 13.285156 24.617188 13.109375 24.640625 12.941406 24.675781 C 12.515625 24.769531 12.144531 24.929688 11.832031 25.140625 C 11.769531 25.183594 11.710938 25.230469 11.648438 25.277344 C 11.539062 24.839844 11.488281 24.386719 11.488281 23.929688 C 11.488281 23.136719 11.644531 22.328125 11.929688 21.5625 C 12.351562 20.410156 13.070312 19.351562 13.976562 18.582031 C 14.429688 18.199219 14.929688 17.882812 15.464844 17.664062 C 15.785156 17.53125 16.121094 17.433594 16.464844 17.375 C 16.460938 17.398438 16.449219 17.425781 16.441406 17.449219 C 16.378906 17.652344 16.339844 17.859375 16.339844 18.066406 C 16.339844 18.25 16.367188 18.4375 16.425781 18.621094 C 16.488281 18.804688 16.582031 18.984375 16.707031 19.160156 C 16.871094 19.386719 17.085938 19.5625 17.332031 19.6875 C 17.574219 19.808594 17.84375 19.875 18.121094 19.875 C 18.183594 19.875 18.242188 19.871094 18.304688 19.867188 C 18.46875 19.847656 18.632812 19.800781 18.785156 19.726562 C 18.9375 19.65625 19.078125 19.550781 19.183594 19.40625 C 19.261719 19.304688 19.320312 19.195312 19.359375 19.074219 C 19.394531 18.957031 19.410156 18.835938 19.410156 18.710938 C 19.410156 18.460938 19.34375 18.214844 19.222656 18 C 19.125 17.820312 18.996094 17.667969 18.847656 17.53125 C 18.625 17.335938 18.359375 17.1875 18.078125 17.09375 C 17.796875 17 17.492188 16.949219 17.199219 16.949219 C 17.183594 16.949219 17.167969 16.949219 17.152344 16.949219 C 17.125 16.949219 17.097656 16.949219 17.070312 16.953125 C 17.132812 16.855469 17.203125 16.753906 17.277344 16.65625 C 17.621094 16.214844 18.074219 15.792969 18.53125 15.433594 C 18.988281 15.074219 19.449219 14.773438 19.796875 14.566406 C 21.074219 13.796875 22.539062 13.402344 24 13.402344 C 25.050781 13.402344 26.09375 13.605469 27.078125 14.019531 C 26.953125 14.089844 26.832031 14.167969 26.71875 14.246094 C 26.40625 14.464844 26.125 14.714844 25.910156 15 C 25.804688 15.144531 25.714844 15.296875 25.652344 15.457031 C 25.59375 15.621094 25.558594 15.792969 25.558594 15.96875 C 25.558594 16.15625 25.59375 16.351562 25.683594 16.542969 C 25.769531 16.738281 25.898438 16.929688 26.074219 17.125 C 26.246094 17.316406 26.460938 17.460938 26.691406 17.558594 C 26.925781 17.65625 27.179688 17.707031 27.429688 17.707031 C 27.699219 17.707031 27.96875 17.644531 28.214844 17.523438 C 28.519531 17.371094 28.765625 17.128906 28.9375 16.84375 C 29.109375 16.558594 29.203125 16.226562 29.203125 15.894531 C 29.203125 15.78125 29.195312 15.671875 29.171875 15.558594 C 29.136719 15.390625 29.082031 15.230469 29.003906 15.082031 C 28.886719 14.855469 28.734375 14.65625 28.550781 14.484375 C 28.371094 14.308594 28.164062 14.164062 27.949219 14.042969 C 27.929688 14.03125 27.902344 14.019531 27.882812 14.007812 C 28.035156 13.941406 28.179688 13.882812 28.320312 13.835938 C 29.429688 13.449219 30.59375 13.210938 31.75 13.210938 C 32.675781 13.210938 33.59375 13.363281 34.476562 13.722656 C 34.792969 13.851562 35.175781 14.0625 35.570312 14.332031 C 36.160156 14.734375 36.773438 15.273438 37.234375 15.863281 C 37.242188 15.871094 37.25 15.882812 37.257812 15.898438 C 36.742188 16.003906 36.238281 16.183594 35.757812 16.441406 C 35.480469 16.59375 35.230469 16.804688 35.039062 17.058594 C 34.84375 17.3125 34.703125 17.605469 34.65625 17.925781 C 34.636719 18.03125 34.628906 18.132812 34.628906 18.234375 C 34.628906 18.476562 34.679688 18.699219 34.769531 18.890625 C 34.835938 19.035156 34.929688 19.160156 35.039062 19.273438 C 35.199219 19.441406 35.398438 19.5625 35.613281 19.644531 C 35.824219 19.726562 36.058594 19.765625 36.292969 19.765625 C 36.527344 19.765625 36.761719 19.726562 36.988281 19.644531 C 37.210938 19.558594 37.421875 19.433594 37.605469 19.265625 C 37.863281 19.023438 38.054688 18.765625 38.171875 18.496094 C 38.296875 18.226562 38.347656 17.949219 38.347656 17.671875 C 38.347656 17.433594 38.308594 17.199219 38.238281 16.96875 C 38.160156 16.695312 38.03125 16.429688 37.878906 16.167969 C 38.078125 16.148438 38.277344 16.136719 38.480469 16.136719 C 39.21875 16.136719 39.96875 16.265625 40.6875 16.5 C 41.40625 16.726562 42.089844 17.058594 42.699219 17.453125 C 43.679688 18.085938 44.433594 18.953125 44.949219 19.957031 C 45.421875 20.882812 45.691406 21.921875 45.726562 22.980469 C 45.621094 22.917969 45.511719 22.859375 45.398438 22.804688 C 45.15625 22.691406 44.902344 22.59375 44.644531 22.53125 C 44.390625 22.464844 44.128906 22.429688 43.867188 22.429688 C 43.679688 22.429688 43.488281 22.453125 43.304688 22.492188 C 43.03125 22.558594 42.765625 22.679688 42.527344 22.867188 C 42.292969 23.050781 42.082031 23.300781 41.914062 23.613281 C 41.75 23.90625 41.671875 24.230469 41.671875 24.546875 C 41.671875 24.867188 41.75 25.179688 41.902344 25.460938 C 42.054688 25.746094 42.277344 25.992188 42.566406 26.167969 C 42.742188 26.277344 42.921875 26.359375 43.097656 26.410156 C 43.277344 26.460938 43.453125 26.488281 43.628906 26.488281 C 43.945312 26.488281 44.25 26.40625 44.523438 26.269531 C 44.933594 26.0625 45.289062 25.726562 45.554688 25.332031 C 45.816406 24.933594 45.992188 24.476562 46.042969 24.007812 C 46.054688 23.890625 46.0625 23.765625 46.070312 23.648438 C 46.199219 23.746094 46.316406 23.851562 46.425781 23.957031 C 47.195312 24.714844 47.792969 25.636719 48.191406 26.644531 C 48.59375 27.652344 48.800781 28.738281 48.800781 29.824219 C 48.800781 30.105469 48.785156 30.386719 48.757812 30.667969 C 48.730469 30.9375 48.679688 31.214844 48.605469 31.480469 C 48.496094 31.882812 48.320312 32.261719 48.078125 32.578125 C 47.960938 32.730469 47.824219 32.871094 47.667969 32.992188 C 47.511719 33.109375 47.339844 33.207031 47.144531 33.277344 C 46.816406 33.394531 46.488281 33.445312 46.160156 33.445312 C 45.878906 33.445312 45.601562 33.40625 45.324219 33.339844 C 44.910156 33.242188 44.5 33.074219 44.109375 32.871094 C 43.714844 32.667969 43.332031 32.429688 42.976562 32.1875 C 41.125 30.910156 39.300781 29.429688 37.347656 28.214844 C 36.367188 27.605469 35.355469 27.0625 34.289062 26.644531 C 33.273438 26.246094 32.203125 25.960938 31.070312 25.839844 C 31.3125 25.164062 31.636719 24.523438 32.035156 23.945312 C 32.292969 24.074219 32.554688 24.195312 32.816406 24.304688 C 33.949219 24.78125 35.152344 25.074219 36.371094 25.074219 C 36.710938 25.074219 37.054688 25.050781 37.398438 25.003906 C 37.648438 24.96875 37.90625 24.914062 38.15625 24.828125 C 38.527344 24.707031 38.890625 24.527344 39.183594 24.277344 C 39.328125 24.152344 39.460938 24.007812 39.5625 23.847656 C 39.667969 23.6875 39.75 23.507812 39.792969 23.304688 C 39.824219 23.183594 39.835938 23.0625 39.835938 22.941406 C 39.835938 22.761719 39.808594 22.585938 39.753906 22.417969 C 39.679688 22.164062 39.546875 21.921875 39.378906 21.714844 C 39.214844 21.507812 39.011719 21.324219 38.78125 21.1875 C 38.519531 21.03125 38.238281 20.925781 37.949219 20.859375 C 37.664062 20.789062 37.363281 20.761719 37.066406 20.761719 C 36.863281 20.761719 36.660156 20.777344 36.460938 20.796875 C 35.710938 20.886719 35.011719 21.101562 34.375 21.417969 C 33.421875 21.890625 32.613281 22.59375 31.96875 23.4375 C 31.957031 23.453125 31.941406 23.472656 31.929688 23.488281 C 31.199219 23.101562 30.5 22.648438 29.84375 22.160156 C 29.421875 21.84375 29.007812 21.507812 28.578125 21.183594 C 28.152344 20.859375 27.714844 20.542969 27.246094 20.269531 C 26.800781 20.007812 26.335938 19.800781 25.863281 19.65625 C 25.386719 19.511719 24.898438 19.4375 24.402344 19.4375 C 23.925781 19.4375 23.4375 19.511719 22.949219 19.664062 C 21.886719 20.003906 20.910156 20.617188 20.105469 21.414062 C 19.304688 22.207031 18.679688 23.179688 18.320312 24.234375 C 18.203125 24.578125 18.117188 24.957031 18.117188 25.335938 C 18.117188 25.519531 18.136719 25.707031 18.1875 25.882812 C 18.234375 26.0625 18.316406 26.230469 18.4375 26.382812 C 18.46875 26.425781 18.503906 26.46875 18.539062 26.507812 C 18.457031 26.621094 18.378906 26.730469 18.304688 26.828125 C 17.878906 27.417969 17.5 28.074219 17.230469 28.765625 C 16.957031 29.460938 16.789062 30.195312 16.789062 30.945312 C 16.789062 31.332031 16.835938 31.71875 16.933594 32.105469 C 17.054688 32.582031 17.242188 33.015625 17.488281 33.394531 C 17.859375 33.96875 18.355469 34.429688 18.933594 34.773438 C 19.507812 35.117188 20.171875 35.34375 20.871094 35.460938 C 21.304688 35.53125 21.734375 35.5625 22.167969 35.5625 C 22.660156 35.5625 23.152344 35.523438 23.644531 35.46875 C 24.445312 35.375 25.210938 35.175781 25.972656 35 C 26.730469 34.824219 27.480469 34.675781 28.25 34.675781 C 28.355469 34.675781 28.457031 34.679688 28.558594 34.683594 C 29.019531 34.707031 29.472656 34.734375 29.921875 34.769531 C 29.957031 35.101562 30.042969 35.433594 30.160156 35.757812 C 30.402344 36.425781 30.789062 37.058594 31.238281 37.625 C 31.6875 38.191406 32.195312 38.683594 32.679688 39.066406 C 33.113281 39.410156 33.558594 39.730469 33.992188 40.054688 C 34.425781 40.382812 34.839844 40.71875 35.214844 41.101562 C 35.707031 41.601562 36.042969 42.140625 36.261719 42.726562 C 36.480469 43.308594 36.578125 43.9375 36.578125 44.601562 C 36.578125 44.832031 36.570312 45.074219 36.542969 45.316406 C 36.511719 45.664062 36.390625 46.078125 36.199219 46.527344 C 36.160156 46.621094 36.203125 46.726562 36.292969 46.765625 C 36.386719 46.804688 36.492188 46.761719 36.53125 46.667969 C 36.734375 46.195312 36.863281 45.746094 36.902344 45.347656 C 36.925781 45.09375 36.9375 44.84375 36.9375 44.597656 C 36.9375 43.898438 36.835938 43.226562 36.601562 42.597656 C 36.363281 41.964844 35.996094 41.378906 35.472656 40.84375 C 35.082031 40.445312 34.648438 40.097656 34.210938 39.765625 C 33.773438 39.4375 33.324219 39.121094 32.902344 38.78125 C 32.285156 38.296875 31.617188 37.605469 31.113281 36.835938 C 30.859375 36.449219 30.644531 36.046875 30.496094 35.628906 C 30.394531 35.351562 30.324219 35.074219 30.289062 34.796875 C 30.558594 34.824219 30.832031 34.859375 31.09375 34.902344 C 31.910156 35.035156 32.691406 35.265625 33.414062 35.671875 C 34.25 36.148438 35.09375 36.6875 35.980469 37.125 C 36.425781 37.34375 36.878906 37.535156 37.347656 37.675781 C 37.8125 37.816406 38.300781 37.90625 38.800781 37.921875 C 38.851562 37.921875 38.90625 37.921875 38.953125 37.921875 C 39.320312 37.921875 39.695312 37.878906 40.050781 37.777344 C 40.40625 37.671875 40.746094 37.507812 41.042969 37.273438 C 41.382812 37.003906 41.632812 36.648438 41.800781 36.261719 C 41.964844 35.875 42.050781 35.445312 42.050781 35.019531 C 42.050781 34.582031 41.960938 34.136719 41.789062 33.734375 C 41.535156 33.144531 41.128906 32.644531 40.640625 32.242188 C 40.148438 31.839844 39.578125 31.535156 38.976562 31.335938 C 38.671875 31.230469 38.359375 31.195312 38.046875 31.195312 C 37.5625 31.195312 37.082031 31.28125 36.605469 31.375 C 36.132812 31.46875 35.667969 31.5625 35.226562 31.585938 C 35.121094 31.585938 35.011719 31.589844 34.90625 31.589844 C 34.644531 31.589844 34.367188 31.582031 34.085938 31.570312 C 33.800781 31.558594 33.507812 31.546875 33.21875 31.546875 C 32.710938 31.546875 32.207031 31.582031 31.742188 31.71875 C 31.507812 31.789062 31.289062 31.882812 31.082031 32.011719 C 30.878906 32.144531 30.695312 32.3125 30.539062 32.519531 C 30.316406 32.816406 30.160156 33.121094 30.054688 33.4375 C 29.953125 33.75 29.910156 34.074219 29.910156 34.394531 C 29.910156 34.398438 29.910156 34.40625 29.910156 34.410156 C 29.46875 34.375 29.027344 34.347656 28.582031 34.328125 C 28.472656 34.320312 28.363281 34.320312 28.253906 34.320312 C 27.4375 34.320312 26.660156 34.480469 25.898438 34.65625 C 25.132812 34.832031 24.378906 35.027344 23.613281 35.117188 C 23.132812 35.171875 22.65625 35.207031 22.179688 35.207031 C 21.765625 35.207031 21.351562 35.179688 20.941406 35.113281 C 20.058594 34.96875 19.257812 34.628906 18.621094 34.117188 C 18.304688 33.859375 18.027344 33.554688 17.804688 33.207031 C 17.578125 32.859375 17.40625 32.464844 17.292969 32.019531 C 17.203125 31.664062 17.164062 31.304688 17.164062 30.949219 C 17.164062 30.253906 17.316406 29.5625 17.578125 28.898438 C 17.839844 28.238281 18.199219 27.609375 18.613281 27.039062 C 18.679688 26.949219 18.75 26.847656 18.820312 26.75 C 18.824219 26.75 18.824219 26.753906 18.828125 26.753906 C 19.039062 26.910156 19.273438 27.015625 19.527344 27.085938 C 19.78125 27.15625 20.046875 27.183594 20.320312 27.183594 C 20.859375 27.183594 21.421875 27.0625 21.925781 26.871094 C 22.179688 26.769531 22.414062 26.660156 22.628906 26.527344 C 22.84375 26.398438 23.035156 26.253906 23.191406 26.101562 C 23.363281 25.933594 23.503906 25.738281 23.597656 25.53125 C 23.691406 25.320312 23.746094 25.101562 23.746094 24.878906 C 23.746094 24.753906 23.726562 24.632812 23.691406 24.515625 C 23.636719 24.339844 23.539062 24.175781 23.390625 24.042969 C 23.242188 23.90625 23.050781 23.804688 22.816406 23.746094 C 22.621094 23.691406 22.433594 23.671875 22.246094 23.671875 C 22.023438 23.671875 21.808594 23.703125 21.601562 23.761719 C 21.238281 23.867188 20.898438 24.050781 20.578125 24.285156 C 20.101562 24.632812 19.671875 25.082031 19.292969 25.539062 C 19.109375 25.769531 18.933594 25.992188 18.769531 26.210938 C 18.761719 26.199219 18.75 26.183594 18.738281 26.167969 C 18.652344 26.054688 18.585938 25.921875 18.546875 25.78125 C 18.511719 25.640625 18.488281 25.492188 18.488281 25.335938 C 18.488281 25.015625 18.566406 24.667969 18.671875 24.351562 C 19.007812 23.355469 19.609375 22.425781 20.371094 21.671875 C 21.132812 20.914062 22.066406 20.328125 23.074219 20.007812 C 23.523438 19.867188 23.972656 19.796875 24.417969 19.796875 C 24.875 19.796875 25.328125 19.867188 25.773438 20.003906 C 26.21875 20.136719 26.65625 20.332031 27.082031 20.578125 C 27.53125 20.84375 27.957031 21.148438 28.378906 21.46875 C 28.800781 21.789062 29.214844 22.125 29.644531 22.449219 C 30.300781 22.9375 31.003906 23.394531 31.734375 23.785156 C 31.3125 24.402344 30.972656 25.089844 30.722656 25.8125 C 30.429688 25.789062 30.136719 25.78125 29.84375 25.78125 C 28.730469 25.78125 27.613281 25.9375 26.550781 26.257812 C 25.488281 26.578125 24.476562 27.0625 23.574219 27.722656 C 23.273438 27.9375 22.976562 28.1875 22.726562 28.480469 C 22.597656 28.625 22.484375 28.78125 22.386719 28.949219 C 22.289062 29.113281 22.210938 29.292969 22.15625 29.484375 C 22.09375 29.683594 22.070312 29.886719 22.070312 30.085938 C 22.070312 30.355469 22.121094 30.625 22.207031 30.878906 C 22.339844 31.257812 22.5625 31.613281 22.84375 31.910156 C 23.125 32.210938 23.46875 32.453125 23.847656 32.613281 C 24.3125 32.808594 24.804688 32.894531 25.296875 32.894531 C 26.058594 32.894531 26.824219 32.691406 27.515625 32.390625 C 27.964844 32.191406 28.394531 31.945312 28.785156 31.640625 C 29.175781 31.339844 29.523438 30.976562 29.785156 30.554688 C 29.984375 30.230469 30.132812 29.890625 30.246094 29.546875 C 30.414062 29.027344 30.511719 28.492188 30.597656 27.960938 C 30.6875 27.429688 30.769531 26.90625 30.910156 26.414062 C 30.933594 26.34375 30.953125 26.273438 30.976562 26.199219 C 32.105469 26.3125 33.164062 26.589844 34.179688 26.984375 C 35.742188 27.597656 37.195312 28.488281 38.609375 29.46875 C 40.023438 30.453125 41.394531 31.519531 42.796875 32.488281 C 43.277344 32.824219 43.816406 33.148438 44.382812 33.394531 C 44.667969 33.519531 44.957031 33.621094 45.261719 33.695312 C 45.5625 33.769531 45.867188 33.808594 46.179688 33.808594 C 46.546875 33.808594 46.917969 33.746094 47.285156 33.617188 C 47.589844 33.507812 47.855469 33.339844 48.078125 33.136719 C 48.414062 32.824219 48.65625 32.4375 48.824219 32.011719 C 48.996094 31.589844 49.09375 31.144531 49.136719 30.710938 C 49.164062 30.417969 49.179688 30.125 49.179688 29.832031 C 49.167969 28.6875 48.949219 27.554688 48.535156 26.507812 Z M 11.925781 25.5 C 12.214844 25.28125 12.574219 25.109375 13.011719 25.011719 C 13.15625 24.980469 13.308594 24.964844 13.457031 24.964844 C 13.695312 24.964844 13.929688 25 14.144531 25.082031 C 14.359375 25.164062 14.550781 25.285156 14.707031 25.449219 C 14.832031 25.582031 14.9375 25.746094 15.003906 25.921875 C 15.074219 26.097656 15.109375 26.285156 15.109375 26.46875 C 15.109375 26.65625 15.074219 26.835938 14.996094 26.992188 C 14.921875 27.15625 14.808594 27.296875 14.652344 27.410156 C 14.542969 27.484375 14.421875 27.546875 14.296875 27.582031 C 14.167969 27.621094 14.03125 27.636719 13.890625 27.636719 C 13.605469 27.636719 13.304688 27.558594 13.035156 27.425781 C 12.769531 27.292969 12.535156 27.101562 12.382812 26.886719 C 12.105469 26.5 11.890625 26.078125 11.75 25.636719 C 11.804688 25.597656 11.859375 25.550781 11.925781 25.5 Z M 17.152344 17.304688 C 17.167969 17.304688 17.175781 17.304688 17.191406 17.304688 C 17.53125 17.304688 17.886719 17.378906 18.191406 17.527344 C 18.339844 17.601562 18.480469 17.691406 18.601562 17.796875 C 18.722656 17.90625 18.824219 18.027344 18.902344 18.167969 C 18.992188 18.332031 19.042969 18.523438 19.042969 18.707031 C 19.042969 18.796875 19.03125 18.882812 19.007812 18.964844 C 18.980469 19.046875 18.941406 19.121094 18.894531 19.183594 C 18.824219 19.273438 18.726562 19.34375 18.617188 19.402344 C 18.511719 19.453125 18.382812 19.488281 18.257812 19.503906 C 18.207031 19.511719 18.160156 19.511719 18.113281 19.511719 C 17.898438 19.511719 17.679688 19.457031 17.484375 19.359375 C 17.292969 19.261719 17.121094 19.121094 16.992188 18.945312 C 16.882812 18.796875 16.8125 18.648438 16.761719 18.5 C 16.710938 18.351562 16.691406 18.207031 16.691406 18.0625 C 16.691406 17.890625 16.71875 17.722656 16.777344 17.550781 C 16.800781 17.472656 16.832031 17.394531 16.867188 17.316406 C 16.957031 17.3125 17.054688 17.304688 17.152344 17.304688 Z M 27.777344 14.359375 C 28.03125 14.5 28.265625 14.683594 28.453125 14.902344 C 28.542969 15.011719 28.625 15.125 28.6875 15.25 C 28.75 15.371094 28.796875 15.5 28.824219 15.636719 C 28.84375 15.722656 28.851562 15.808594 28.851562 15.898438 C 28.851562 16.160156 28.773438 16.433594 28.632812 16.664062 C 28.496094 16.894531 28.292969 17.089844 28.058594 17.207031 C 27.863281 17.300781 27.648438 17.351562 27.429688 17.351562 C 27.222656 17.351562 27.015625 17.308594 26.832031 17.230469 C 26.640625 17.152344 26.472656 17.035156 26.335938 16.890625 C 26.179688 16.71875 26.074219 16.558594 26.007812 16.40625 C 25.941406 16.257812 25.910156 16.113281 25.910156 15.972656 C 25.910156 15.855469 25.933594 15.742188 25.96875 15.628906 C 26.035156 15.433594 26.160156 15.238281 26.324219 15.054688 C 26.570312 14.78125 26.90625 14.527344 27.265625 14.320312 C 27.335938 14.28125 27.40625 14.242188 27.472656 14.203125 C 27.578125 14.253906 27.679688 14.304688 27.777344 14.359375 Z M 37.785156 16.765625 C 37.917969 17.070312 37.992188 17.375 37.992188 17.667969 C 37.992188 17.898438 37.949219 18.125 37.847656 18.34375 C 37.746094 18.566406 37.59375 18.785156 37.363281 19 C 37.214844 19.136719 37.042969 19.238281 36.859375 19.304688 C 36.675781 19.371094 36.484375 19.40625 36.292969 19.40625 C 36.121094 19.40625 35.953125 19.378906 35.796875 19.328125 C 35.683594 19.289062 35.574219 19.234375 35.472656 19.167969 C 35.328125 19.070312 35.207031 18.945312 35.121094 18.789062 C 35.039062 18.632812 34.988281 18.453125 34.988281 18.234375 C 34.988281 18.15625 34.996094 18.070312 35.011719 17.984375 C 35.050781 17.726562 35.164062 17.484375 35.328125 17.273438 C 35.488281 17.0625 35.699219 16.882812 35.933594 16.753906 C 36.328125 16.539062 36.746094 16.378906 37.171875 16.28125 C 37.277344 16.257812 37.382812 16.234375 37.488281 16.214844 C 37.605469 16.398438 37.707031 16.582031 37.785156 16.765625 Z M 45.695312 23.972656 C 45.667969 24.242188 45.589844 24.511719 45.472656 24.769531 C 45.296875 25.152344 45.027344 25.496094 44.707031 25.742188 C 44.546875 25.863281 44.375 25.960938 44.195312 26.027344 C 44.015625 26.097656 43.828125 26.132812 43.640625 26.132812 C 43.5 26.132812 43.355469 26.109375 43.210938 26.066406 C 43.066406 26.027344 42.914062 25.957031 42.765625 25.867188 C 42.53125 25.71875 42.351562 25.523438 42.230469 25.292969 C 42.105469 25.066406 42.042969 24.808594 42.042969 24.546875 C 42.042969 24.289062 42.105469 24.023438 42.234375 23.78125 C 42.335938 23.597656 42.445312 23.441406 42.570312 23.316406 C 42.753906 23.125 42.953125 22.996094 43.175781 22.914062 C 43.394531 22.828125 43.628906 22.789062 43.878906 22.789062 C 44.101562 22.789062 44.332031 22.820312 44.566406 22.878906 C 44.914062 22.96875 45.261719 23.121094 45.582031 23.304688 C 45.632812 23.335938 45.683594 23.371094 45.734375 23.402344 C 45.726562 23.589844 45.710938 23.78125 45.695312 23.972656 Z M 30.261719 34.390625 C 30.261719 34.105469 30.300781 33.820312 30.390625 33.546875 C 30.480469 33.269531 30.621094 33 30.820312 32.734375 C 30.949219 32.558594 31.105469 32.421875 31.273438 32.3125 C 31.53125 32.148438 31.828125 32.046875 32.15625 31.980469 C 32.488281 31.917969 32.847656 31.902344 33.210938 31.902344 C 33.492188 31.902344 33.78125 31.910156 34.0625 31.921875 C 34.347656 31.933594 34.628906 31.945312 34.898438 31.945312 C 35.011719 31.945312 35.125 31.941406 35.238281 31.941406 C 35.71875 31.917969 36.195312 31.816406 36.667969 31.726562 C 37.136719 31.632812 37.597656 31.550781 38.035156 31.550781 C 38.320312 31.550781 38.589844 31.585938 38.855469 31.671875 C 39.414062 31.863281 39.949219 32.148438 40.398438 32.519531 C 40.851562 32.894531 41.21875 33.347656 41.449219 33.878906 C 41.601562 34.234375 41.679688 34.628906 41.679688 35.023438 C 41.679688 35.40625 41.605469 35.785156 41.460938 36.125 C 41.316406 36.46875 41.101562 36.765625 40.8125 37 C 40.558594 37.203125 40.261719 37.34375 39.941406 37.4375 C 39.625 37.53125 39.285156 37.570312 38.945312 37.570312 C 38.902344 37.570312 38.851562 37.570312 38.804688 37.570312 C 38.339844 37.554688 37.886719 37.46875 37.441406 37.335938 C 36.777344 37.136719 36.128906 36.824219 35.488281 36.472656 C 34.847656 36.121094 34.21875 35.726562 33.582031 35.371094 C 32.816406 34.933594 31.992188 34.699219 31.148438 34.558594 C 30.851562 34.507812 30.550781 34.472656 30.253906 34.441406 C 30.261719 34.417969 30.261719 34.40625 30.261719 34.390625 Z M 19.304688 26.078125 C 19.699219 25.570312 20.15625 25.050781 20.652344 24.660156 C 20.902344 24.46875 21.160156 24.304688 21.421875 24.195312 C 21.6875 24.082031 21.957031 24.023438 22.230469 24.023438 C 22.386719 24.023438 22.546875 24.046875 22.707031 24.085938 C 22.832031 24.117188 22.9375 24.164062 23.015625 24.21875 C 23.144531 24.296875 23.226562 24.394531 23.285156 24.503906 C 23.339844 24.613281 23.367188 24.738281 23.367188 24.871094 C 23.367188 25.03125 23.328125 25.207031 23.253906 25.371094 C 23.175781 25.539062 23.0625 25.703125 22.925781 25.839844 C 22.792969 25.96875 22.625 26.097656 22.429688 26.214844 C 22.136719 26.390625 21.789062 26.542969 21.421875 26.652344 C 21.058594 26.757812 20.671875 26.820312 20.304688 26.820312 C 19.976562 26.820312 19.664062 26.769531 19.398438 26.664062 C 19.261719 26.613281 19.136719 26.546875 19.023438 26.460938 C 19.019531 26.460938 19.019531 26.457031 19.015625 26.453125 C 19.113281 26.332031 19.207031 26.203125 19.304688 26.078125 Z M 32.925781 22.894531 C 33.40625 22.425781 33.945312 22.03125 34.546875 21.734375 C 35.144531 21.433594 35.800781 21.234375 36.507812 21.148438 C 36.695312 21.128906 36.886719 21.113281 37.078125 21.113281 C 37.351562 21.113281 37.625 21.140625 37.878906 21.199219 C 38.136719 21.257812 38.382812 21.355469 38.609375 21.488281 C 38.863281 21.636719 39.082031 21.859375 39.242188 22.113281 C 39.320312 22.238281 39.382812 22.375 39.425781 22.511719 C 39.46875 22.648438 39.488281 22.789062 39.488281 22.929688 C 39.488281 23.023438 39.476562 23.121094 39.457031 23.214844 C 39.40625 23.421875 39.3125 23.605469 39.183594 23.765625 C 39.082031 23.886719 38.964844 24 38.832031 24.09375 C 38.628906 24.242188 38.390625 24.359375 38.136719 24.449219 C 37.882812 24.539062 37.617188 24.605469 37.355469 24.640625 C 37.027344 24.683594 36.707031 24.707031 36.378906 24.707031 C 35.21875 24.707031 34.0625 24.425781 32.957031 23.964844 C 32.722656 23.867188 32.488281 23.757812 32.253906 23.644531 C 32.460938 23.382812 32.6875 23.128906 32.925781 22.894531 Z M 30.550781 26.300781 C 30.355469 26.996094 30.269531 27.71875 30.140625 28.410156 C 30.074219 28.753906 30 29.097656 29.894531 29.421875 C 29.789062 29.746094 29.652344 30.058594 29.46875 30.347656 C 29.230469 30.734375 28.914062 31.0625 28.550781 31.34375 C 28.1875 31.625 27.78125 31.859375 27.355469 32.046875 C 26.699219 32.335938 25.980469 32.523438 25.277344 32.523438 C 24.824219 32.523438 24.382812 32.445312 23.96875 32.273438 C 23.535156 32.089844 23.140625 31.765625 22.859375 31.375 C 22.71875 31.179688 22.605469 30.96875 22.527344 30.75 C 22.449219 30.53125 22.40625 30.304688 22.40625 30.078125 C 22.40625 29.910156 22.433594 29.742188 22.476562 29.574219 C 22.523438 29.417969 22.59375 29.265625 22.675781 29.121094 C 22.800781 28.90625 22.96875 28.707031 23.152344 28.519531 C 23.339844 28.332031 23.550781 28.164062 23.765625 28.007812 C 24.632812 27.371094 25.605469 26.90625 26.636719 26.59375 C 27.664062 26.285156 28.746094 26.132812 29.828125 26.132812 C 30.082031 26.132812 30.335938 26.140625 30.585938 26.160156 C 30.582031 26.203125 30.566406 26.25 30.550781 26.300781 Z M 30.550781 26.300781 " fill-opacity="1" fill-rule="nonzero"/></g></svg>